<?xml version="1.0" standalone="no"?>
<!DOCTYPE svg PUBLIC "-//W3C//DTD SVG 20010904//EN"
 "http://www.w3.org/TR/2001/REC-SVG-20010904/DTD/svg10.dtd">
<svg version="1.0" xmlns="http://www.w3.org/2000/svg"
 width="700.000000pt" height="700.000000pt" viewBox="0 0 700.000000 700.000000"
 preserveAspectRatio="xMidYMid meet">
<metadata>
Created by potrace 1.11, written by Peter Selinger 2001-2013
</metadata>
<g transform="translate(0.000000,700.000000) scale(0.100000,-0.100000)"
fill="#000000" stroke="none">
<path d="M1113 6986 c4 -10 -8 -18 -46 -27 -114 -26 -275 -93 -382 -157 -241
-144 -433 -357 -554 -615 -60 -126 -96 -253 -120 -419 -6 -36 -9 -713 -9
-1578 0 -1438 1 -1521 19 -1624 70 -403 314 -759 664 -968 106 -64 249 -123
365 -152 183 -45 142 -44 1740 -44 861 0 1542 3 1578 9 97 14 121 19 198 39
178 48 331 124 484 241 295 225 486 553 536 919 19 145 18 3070 -2 3190 -26
161 -52 247 -114 385 -28 61 -116 216 -129 225 -4 3 -21 25 -39 50 -79 109
-245 258 -370 333 -173 102 -326 157 -532 191 -129 22 -3295 23 -3287 2z"/>
</g>
</svg>
